<svg version="1.1" id="Layer_1" xmlns="http://www.w3.org/2000/svg" x="0" y="0" viewBox="0 0 1920 590.9" xml:space="preserve"><style/><path d="M0 590.9h1920V49l-35.8 19.6c-5.7-6.2-12.8-11.4-21-14.9-30.5-12.9-65.7 1.4-78.6 32-5.4 12.9-6 26.6-2.6 39.1l-186.9 103.6c-6.2-8.4-14.6-15.3-24.9-19.6-30.5-12.9-65.7 1.4-78.6 32-5.1 12-5.9 24.8-3.2 36.6l-174.4 68c-6.2-12-16.5-21.9-29.9-27.5-30.5-12.9-65.7 1.5-78.6 32-1 2.5-1.9 5-2.6 7.5l-190.4-61c2.7-25.6-11.4-51-36.4-61.5-30.5-12.9-65.7 1.5-78.6 32-3.6 8.5-5 17.3-4.7 25.9L697 347.7c-6.1-12.9-16.8-23.8-31-29.8-30.5-12.9-65.7 1.5-78.6 32-3.7 8.7-5.1 17.8-4.6 26.6l-320.6 9.9c-5.8-14.2-17-26.1-32.2-32.5-30.5-12.9-65.7 1.5-78.6 32-5 11.8-6.1 24.2-3.6 35.8L0 482.8v108.1zM1806.7 95.1c7.7-18.3 28.8-26.9 47.2-19.2 18.3 7.7 26.9 28.8 19.2 47.2-7.7 18.3-28.8 26.9-47.2 19.2-18.4-7.8-27-28.9-19.2-47.2zm-293 155c7.7-18.3 28.8-26.9 47.2-19.2 18.3 7.7 26.9 28.8 19.2 47.2-7.7 18.3-28.8 26.9-47.2 19.2-18.4-7.8-27-28.9-19.2-47.2zm-286 109c7.7-18.3 28.8-26.9 47.2-19.2 18.3 7.7 26.9 28.8 19.2 47.2-7.7 18.3-28.8 26.9-47.2 19.2-18.4-7.8-27-28.9-19.2-47.2zm-308-83c7.7-18.3 28.8-26.9 47.2-19.2 18.3 7.7 26.9 28.8 19.2 47.2-7.7 18.3-28.8 26.9-47.2 19.2-18.4-7.8-27-28.9-19.2-47.2zm-310 83c7.7-18.3 28.8-26.9 47.2-19.2 18.3 7.7 26.9 28.8 19.2 47.2-7.7 18.3-28.8 26.9-47.2 19.2-18.4-7.8-27-28.9-19.2-47.2zm-436 36c7.7-18.3 28.8-26.9 47.2-19.2 18.3 7.7 26.9 28.8 19.2 47.2-7.7 18.3-28.8 26.9-47.2 19.2-18.4-7.8-27-28.9-19.2-47.2z" fill="#e4f4ff"/></svg>