<?xml version="1.0" encoding="utf-8"?>
<!-- Generator: Adobe Illustrator 19.0.1, SVG Export Plug-In . SVG Version: 6.00 Build 0)  -->
<svg version="1.1" id="Layer_1" xmlns="http://www.w3.org/2000/svg" xmlns:xlink="http://www.w3.org/1999/xlink" x="0px" y="0px"
	 viewBox="0 0 1920 590.9" style="enable-background:new 0 0 1920 590.9;" xml:space="preserve">
<style type="text/css">
	.st0{fill:none;stroke:#F39345;stroke-width:3;stroke-linecap:round;stroke-linejoin:round;stroke-miterlimit:10;}
	.st1{fill:#F39345;}
	.st2{fill:none;stroke:#F39345;stroke-width:5;stroke-linecap:round;stroke-linejoin:round;stroke-miterlimit:10;}
	.st3{fill:#0B79BC;}
	.st4{fill:#F29246;}
	.st5{fill:none;stroke:#F39345;stroke-width:2;stroke-linecap:round;stroke-linejoin:round;stroke-miterlimit:10;}
	.st6{fill:#1D1D1B;stroke:#F39345;}
	.st7{fill-rule:evenodd;clip-rule:evenodd;fill:#FDFDFF;}
	.st8{fill:#FDFDFF;}
	.st9{fill:#DAECF9;}
	.st10{fill-rule:evenodd;clip-rule:evenodd;fill:#F29246;}
	.st11{fill-rule:evenodd;clip-rule:evenodd;fill:#0B79BC;}
	.st12{fill-rule:evenodd;clip-rule:evenodd;fill:#DAECF9;}
	.st13{fill:#e4f4ff;}
</style>
<path class="st13" d="M0,590.9h1920V49l-35.8,19.6c-5.7-6.2-12.8-11.4-21-14.9c-30.5-12.9-65.7,1.4-78.6,32
	c-5.4,12.9-6,26.6-2.6,39.1l-186.9,103.6c-6.2-8.4-14.6-15.3-24.9-19.6c-30.5-12.9-65.7,1.4-78.6,32c-5.1,12-5.9,24.8-3.2,36.6
	l-174.4,68c-6.2-12-16.5-21.9-29.9-27.5c-30.5-12.9-65.7,1.5-78.6,32c-1,2.5-1.9,5-2.6,7.5l-190.4-61c2.7-25.6-11.4-51-36.4-61.5
	c-30.5-12.9-65.7,1.5-78.6,32c-3.6,8.5-5,17.3-4.7,25.9L697,347.7c-6.1-12.9-16.8-23.8-31-29.8c-30.5-12.9-65.7,1.5-78.6,32
	c-3.7,8.7-5.1,17.8-4.6,26.6l-320.6,9.9c-5.8-14.2-17-26.1-32.2-32.5c-30.5-12.9-65.7,1.5-78.6,32c-5,11.8-6.1,24.2-3.6,35.8
	L0,482.8V590.9z M1806.7,95.1c7.7-18.3,28.8-26.9,47.2-19.2c18.3,7.7,26.9,28.8,19.2,47.2c-7.7,18.3-28.8,26.9-47.2,19.2
	C1807.5,134.5,1798.9,113.4,1806.7,95.1z M1513.7,250.1c7.7-18.3,28.8-26.9,47.2-19.2c18.3,7.7,26.9,28.8,19.2,47.2
	c-7.7,18.3-28.8,26.9-47.2,19.2C1514.5,289.5,1505.9,268.4,1513.7,250.1z M1227.7,359.1c7.7-18.3,28.8-26.9,47.2-19.2
	c18.3,7.7,26.9,28.8,19.2,47.2c-7.7,18.3-28.8,26.9-47.2,19.2C1228.5,398.5,1219.9,377.4,1227.7,359.1z M919.7,276.1
	c7.7-18.3,28.8-26.9,47.2-19.2c18.3,7.7,26.9,28.8,19.2,47.2c-7.7,18.3-28.8,26.9-47.2,19.2C920.5,315.5,911.9,294.4,919.7,276.1z
	 M609.7,359.1c7.7-18.3,28.8-26.9,47.2-19.2c18.3,7.7,26.9,28.8,19.2,47.2c-7.7,18.3-28.8,26.9-47.2,19.2
	C610.5,398.5,601.9,377.4,609.7,359.1z M173.7,395.1c7.7-18.3,28.8-26.9,47.2-19.2c18.3,7.7,26.9,28.8,19.2,47.2
	c-7.7,18.3-28.8,26.9-47.2,19.2C174.5,434.5,165.9,413.4,173.7,395.1z"/>
</svg>
